<?xml version="1.0" encoding="UTF-8"?>
<svg xmlns="http://www.w3.org/2000/svg" id="Layer_1" data-name="Layer 1" viewBox="0 0 378.8228 43.8154">
  <path id="fullLogo" d="M48.894,3.6611l1.2402,39.3867h-9.98l-.4722-17.6558v-1.2402c0-2.1851.1182-3.6611.4722-6.5547-.9448,2.5391-1.7124,4.3105-2.7754,6.4956l-9.6846,18.9551h-5.2554l-3.3662-15.2349c-.8267-3.7202-1.1216-5.728-1.6533-10.8652-.9448,4.8418-1.417,6.7314-2.0669,9.0347l-5.0776,17.0654H0L12.4595,3.6611h9.8613l2.9526,13.2866c.7676,3.3066,1.2993,6.5547,1.7715,10.334.6494-1.8306,1.5352-4.0156,2.2441-5.374L38.5601,3.6611h10.334Z" style="fill: #212121;"></path>
  <path id="fullLogo-2" data-name="fullLogo" d="M84.6807,29.4072c0,8.5034-6.3779,14.4082-15.5898,14.4082-9.4478,0-15.8252-5.5503-15.8252-13.8765,0-8.208,6.6729-14.0542,16.1206-14.0542,9.271,0,15.2944,5.3145,15.2944,13.5225ZM74.7598,29.0532c0-3.3662-2.0078-5.4917-5.2554-5.4917-3.6025,0-6.3188,3.0703-6.3188,7.0859,0,3.3662,2.126,5.5508,5.374,5.5508,3.6021,0,6.2002-3.0117,6.2002-7.145Z" style="fill: #212121;"></path>
  <path id="fullLogo-3" data-name="fullLogo" d="M100.4487,24.1519l-2.3618,18.896h-9.6846l2.3027-18.896h-4.1333l.8857-7.4995h4.1924l1.0039-8.6807h9.7437l-1.063,8.6807h5.1968l-.8857,7.4995h-5.1968Z" style="fill: #212121;"></path>
  <path id="fullLogo-4" data-name="fullLogo" d="M137.5923,29.4072c0,8.5034-6.3784,14.4082-15.5903,14.4082-9.4482,0-15.8252-5.5503-15.8252-13.8765,0-8.208,6.6724-14.0542,16.1206-14.0542,9.271,0,15.2949,5.3145,15.2949,13.5225ZM127.6709,29.0532c0-3.3662-2.0078-5.4917-5.2554-5.4917-3.6025,0-6.3188,3.0703-6.3188,7.0859,0,3.3662,2.126,5.5508,5.374,5.5508,3.6021,0,6.2002-3.0117,6.2002-7.145Z" style="fill: #212121;"></path>
  <path id="fullLogo-5" data-name="fullLogo" d="M152.5327,16.6523l-.7676,3.6021c3.0117-2.7163,5.0791-3.6021,8.7988-3.6021.4131,0,1.0625.0591,1.8896.1182l-1.0635,8.9756c-1.5352-.8267-2.7158-1.1807-4.4277-1.1807-4.0156,0-5.6104,1.8896-6.3193,7.2632l-1.3574,11.2192h-9.7441l3.248-26.3955h9.7432Z" style="fill: #212121;"></path>
  <path id="fullLogo-6" data-name="fullLogo" d="M184.8345,17.7153l-1.0039,8.208c-1.8896-1.7124-3.3066-2.3618-5.373-2.3618-3.6611,0-6.2598,2.8936-6.2598,6.9087,0,3.4844,2.0664,5.6689,5.4326,5.6689,1.7715,0,3.0703-.4722,5.1963-2.0078l-1.0039,8.2671c-3.3652,1.1221-4.7236,1.417-6.9678,1.417-7.3818,0-12.5781-5.4321-12.5781-13.1089,0-8.5625,6.1416-14.8218,14.5859-14.8218,2.8936,0,5.4326.5903,7.9717,1.8306Z" style="fill: #212121;"></path>
  <path id="fullLogo-7" data-name="fullLogo" d="M217.9028,16.6523l-3.248,26.3955h-9.7422l.708-2.8931c-3.0117,2.7158-5.3145,3.6606-8.9756,3.6606-6.6729,0-10.9834-4.8418-10.9834-12.4595,0-8.9165,5.9053-15.4712,13.877-15.4712,3.7197,0,5.7275.8857,8.5625,3.7793l.0586-3.0117h9.7432ZM207.0376,29.0532c0-3.3662-2.0078-5.4917-5.1963-5.4917-3.543,0-6.2598,3.0703-6.2598,7.0859,0,3.3662,2.0674,5.5508,5.3154,5.5508,3.543,0,6.1406-3.0117,6.1406-7.145Z" style="fill: #212121;"></path>
  <path id="fullLogo-8" data-name="fullLogo" d="M233.2583,16.6523l-.7676,3.6021c3.0117-2.7163,5.0781-3.6021,8.7988-3.6021.4131,0,1.0625.0591,1.8896.1182l-1.0635,8.9756c-1.5352-.8267-2.7158-1.1807-4.4287-1.1807-4.0156,0-5.6104,1.8896-6.3184,7.2632l-1.3584,11.2192h-9.7432l3.248-26.3955h9.7432Z" style="fill: #212121;"></path>
  <path id="fullLogo-9" data-name="fullLogo" d="M257.8823,0l-5.3135,43.0479h-9.7441L248.1392,0h9.7432Z" style="fill: #212121;"></path>
  <path id="fullLogo-10" data-name="fullLogo" d="M267.5669,31.8286c0,.9448,0,3.2476,1.3584,4.4878.4727.4727,1.417,1.0039,3.0117,1.0039.8271,0,1.7129-.1772,2.4805-.7085.7676-.5317,1.1221-1.1812,1.2988-1.7715h10.6289c-.6494,1.9487-1.7119,3.6021-2.8936,4.7832-3.3652,3.4834-8.3262,4.1919-11.4561,4.1919-5.5508,0-8.6211-2.126-10.0977-3.4834-1.7119-1.6533-3.6016-4.606-3.6016-9.3301,0-5.0786,2.0664-8.7397,4.3105-10.9248,2.3027-2.2437,5.9053-4.1924,11.2783-4.1924,4.9609,0,8.0908,1.7715,9.9805,3.6611,2.7158,2.7163,3.543,6.6138,3.543,10.0386,0,.7676-.0596,1.5356-.1182,2.2441h-19.7236ZM277.4292,26.3369c-.0596-1.2402-.5908-2.4214-1.3584-3.1299-.709-.6494-1.7715-1.063-3.0713-1.063-1.3574,0-2.5977.5317-3.3652,1.2993s-1.2402,1.9487-1.418,2.8936h9.2129Z" style="fill: #212121;"></path>
  <path id="fullLogo-11" data-name="fullLogo" d="M322.1313,16.6523l-3.248,26.3955h-9.7432l.708-2.8931c-3.0117,2.7158-5.3145,3.6606-8.9756,3.6606-6.6729,0-10.9834-4.8418-10.9834-12.4595,0-8.9165,5.9053-15.4712,13.877-15.4712,3.7197,0,5.7275.8857,8.5625,3.7793l.0586-3.0117h9.7441ZM311.2651,29.0532c0-3.3662-2.0078-5.4917-5.1953-5.4917-3.543,0-6.2598,3.0703-6.2598,7.0859,0,3.3662,2.0664,5.5508,5.3145,5.5508,3.543,0,6.1406-3.0117,6.1406-7.145Z" style="fill: #212121;"></path>
  <path id="fullLogo-12" data-name="fullLogo" d="M347.3481,18.4829l-2.3037,6.6729c-2.7754-1.7124-4.3691-2.2441-6.4365-2.2441-2.1846,0-3.3652.5317-3.3652,1.5947,0,.6494.4131,1.0039,1.5352,1.2988l3.1885.8267c4.8428,1.2993,7.0273,3.6025,7.0273,7.3818,0,6.0229-4.7832,9.8018-12.2832,9.8018-4.3691,0-7.6172-1.063-12.1641-4.0151l3.6025-6.3774c3.7197,2.3623,5.5508,3.0708,8.208,3.0708,2.3027,0,3.6016-.6494,3.6016-1.8306,0-.7085-.4727-1.1221-1.4756-1.4175l-3.1895-.7085c-4.96-1.1812-7.0859-3.543-7.0859-7.6768,0-5.4326,4.4883-9.0938,11.3379-9.0938,3.248,0,6.2002.8267,9.8027,2.7163Z" style="fill: #212121;"></path>
  <path id="fullLogo-13" data-name="fullLogo" d="M358.9819,31.8286c0,.9448,0,3.2476,1.3574,4.4878.4727.4727,1.418,1.0039,3.0117,1.0039.8271,0,1.7129-.1772,2.4805-.7085.7676-.5317,1.1221-1.1812,1.2988-1.7715h10.6299c-.6504,1.9487-1.7129,3.6021-2.8936,4.7832-3.3662,3.4834-8.3262,4.1919-11.4561,4.1919-5.5508,0-8.6221-2.126-10.0977-3.4834-1.7129-1.6533-3.6025-4.606-3.6025-9.3301,0-5.0786,2.0664-8.7397,4.3105-10.9248,2.3027-2.2437,5.9053-4.1924,11.2793-4.1924,4.96,0,8.0898,1.7715,9.9795,3.6611,2.7158,2.7163,3.543,6.6138,3.543,10.0386,0,.7676-.0586,1.5356-.1182,2.2441h-19.7227ZM368.8433,26.3369c-.0596-1.2402-.5908-2.4214-1.3584-3.1299-.709-.6494-1.7715-1.063-3.0703-1.063-1.3584,0-2.5986.5317-3.3662,1.2993s-1.2402,1.9487-1.417,2.8936h9.2119Z" style="fill: #212121;"></path>
</svg>
